<?xml version="1.0" encoding="UTF-8" standalone="no"?>
<!-- Generator: Adobe Illustrator 27.9.0, SVG Export Plug-In . SVG Version: 6.00 Build 0)  -->

<svg
   version="1.1"
   id="Layer_1"
   x="0px"
   y="0px"
   viewBox="0 0 420 419.99997"
   xml:space="preserve"
   sodipodi:docname="logo.svg"
   width="420"
   height="420"
   inkscape:version="1.3.2 (091e20ef0f, 2023-11-25, custom)"
   xmlns:inkscape="http://www.inkscape.org/namespaces/inkscape"
   xmlns:sodipodi="http://sodipodi.sourceforge.net/DTD/sodipodi-0.dtd"
   xmlns="http://www.w3.org/2000/svg"
   xmlns:svg="http://www.w3.org/2000/svg"><defs
   id="defs14">
	
	
	
	
	
	
	
	
	
	
	
	
	
	
	
</defs><sodipodi:namedview
   id="namedview14"
   pagecolor="#ffffff"
   bordercolor="#000000"
   borderopacity="0.25"
   inkscape:showpageshadow="2"
   inkscape:pageopacity="0.0"
   inkscape:pagecheckerboard="0"
   inkscape:deskcolor="#d1d1d1"
   inkscape:zoom="0.71822917"
   inkscape:cx="394.72081"
   inkscape:cy="239.47788"
   inkscape:window-width="1920"
   inkscape:window-height="1240"
   inkscape:window-x="1024"
   inkscape:window-y="0"
   inkscape:window-maximized="0"
   inkscape:current-layer="Layer_1" />
<style
   type="text/css"
   id="style1">
	.st0{fill:#0A315B;}
	.st1{fill:#748FAF;}
	.st2{fill:#3D71C4;}
</style>
<g
   id="g14"
   transform="matrix(1.341218,0,0,1.341218,-56.186538,-38.594482)"
   style="fill:#ffffff;fill-opacity:1"><path
     class="st0"
     d="m 273.37639,176.12738 c -4.7,5 -8,11.2 -9.6,17.9 l -37.1,-16.9 c 3.6,-5.7 6.4,-12 8.3,-18.5 z"
     id="path10"
     style="fill:#ffffff;fill-opacity:1" /><path
     class="st0"
     d="m 144.47639,206.62738 -15.8,34.7 c -5.2,-4.7 -11.5,-7.9 -18,-9.3 l 15.7,-34.4 c 5.5,3.9 11.6,6.9 18.1,9 z"
     id="path11"
     style="fill:#ffffff;fill-opacity:1" /><path
     class="st1"
     d="m 315.97639,240.22738 c -20.4,7.6 -43.2,-2.7 -50.8,-23.2 -2.9,-7.6 -3.2,-15.6 -1.4,-23 1.6,-6.6 4.9,-12.8 9.6,-17.9 4,-4.3 9.1,-7.8 15,-10 20.4,-7.6 43.2,2.7 50.8,23.2 7.7,20.5 -2.7,43.3 -23.2,50.9 z"
     id="path12"
     style="fill:#ffffff;fill-opacity:1" /><path
     class="st1"
     d="m 126.77639,301.52738 c -17.1,13.6 -41.899999,10.8 -55.499999,-6.2 -13.6,-17.1 -10.8,-42 6.2,-55.6 9.7,-7.7 21.9,-10.2 33.099999,-7.7 6.6,1.4 12.8,4.6 18,9.3 1.6,1.4 3,3 4.4,4.7 13.7,17 10.9,41.9 -6.2,55.5 z"
     id="path13"
     style="fill:#ffffff;fill-opacity:1" /><path
     class="st2"
     d="m 234.87639,158.62738 c -1.9,6.5 -4.6,12.8 -8.3,18.5 -8,12.7 -20,22.9 -35.2,28.6 -15.7,5.9 -32.2,5.8 -47,0.9 -6.5,-2.1 -12.6,-5.1 -18.2,-9 -11.6,-8 -20.9,-19.4 -26.199999,-33.6 -13.7,-36.7 4.899999,-77.599998 41.599999,-91.299998 36.7,-13.7 77.6,4.9 91.3,41.599998 5.8,14.8 6,30.2 2,44.3 z"
     id="path14"
     style="fill:#ffffff;fill-opacity:1" /></g>
</svg>
