<?xml version="1.0" encoding="utf-8"?>
<!-- Generator: Adobe Illustrator 27.9.0, SVG Export Plug-In . SVG Version: 6.00 Build 0)  -->
<svg version="1.1" id="Layer_1" xmlns="http://www.w3.org/2000/svg" xmlns:xlink="http://www.w3.org/1999/xlink" x="0px" y="0px"
	 viewBox="0 0 1920 456.7" style="enable-background:new 0 0 1920 456.7;" xml:space="preserve">
<style type="text/css">
	.st0{fill:#0A315B;}
	.st1{fill:#748FAF;}
	.st2{fill:#3D71C4;}
</style>
<g>
	<path class="st0" d="M1757.2,270.6h-62.9l-17.4,43h-21.7l71.5-170.5h1.4l71.5,170.5h-25.4L1757.2,270.6z M1749.7,251.5l-23.3-59.8
		l-24.2,59.8H1749.7z"/>
	<path class="st0" d="M1852,149.9v163.7h-22V149.9H1852z"/>
	<rect x="1582" y="80.4" class="st0" width="16.7" height="296"/>
	<path class="st0" d="M421,188.5c7.5-12.8,17.7-23.1,30.5-30.7c12.8-7.6,26.7-11.4,41.8-11.4c14.9,0,28.8,3.8,41.7,11.4
		c12.8,7.6,23.1,17.9,30.7,30.7c7.6,12.8,11.4,26.7,11.4,41.7c0,15.1-3.8,29.1-11.3,41.9c-7.5,12.8-17.8,23-30.7,30.4
		c-12.9,7.5-26.8,11.2-41.8,11.2c-15.1,0-29.1-3.7-41.9-11.1c-12.8-7.4-23-17.5-30.5-30.2c-7.5-12.8-11.2-26.8-11.2-42.2
		C409.7,215.2,413.5,201.3,421,188.5z M440.5,261.4c5.4,9.5,12.9,17.1,22.3,22.6c9.4,5.6,19.7,8.4,30.9,8.4
		c11.2,0,21.4-2.8,30.7-8.3c9.3-5.5,16.6-13.1,22-22.6c5.4-9.6,8-20,8-31.4c0-11.3-2.7-21.8-8.2-31.5c-5.4-9.7-12.8-17.3-22.2-22.9
		c-9.4-5.6-19.6-8.4-30.8-8.4c-11.2,0-21.4,2.8-30.8,8.5c-9.4,5.7-16.7,13.3-22.1,23c-5.4,9.7-8,20.1-8,31.5
		C432.3,241.5,435.1,251.9,440.5,261.4z"/>
	<path class="st0" d="M679.8,169.7c-6.6-2-12.9-2.9-18.8-2.9c-8.9,0-16,2-21.2,6c-5.2,4-7.8,9.5-7.8,16.4c0,6.8,3.1,12.3,9.2,16.6
		c6.1,4.3,14.8,8.6,26.1,12.8c8.5,3,15.6,6.3,21.4,9.8c5.8,3.5,10.6,8.5,14.5,14.7c3.8,6.3,5.8,14.2,5.8,23.9
		c0,8.8-2.2,16.7-6.6,23.8c-4.4,7.1-10.6,12.7-18.7,16.8c-8.1,4.1-17.5,6.1-28.4,6.1c-10.1,0-19.8-1.6-29.2-4.9
		c-9.4-3.2-17.6-7.4-24.7-12.3l9.7-17.4c5.6,4.2,12.3,7.8,20.1,10.8c7.8,2.9,15.2,4.4,22,4.4c8.8,0,16.4-2.3,23-6.8
		c6.6-4.5,9.8-11.2,9.8-20.1c0-7.5-2.8-13.5-8.3-18c-5.5-4.4-13.2-8.6-23.2-12.6c-9.2-3.5-16.9-6.9-23-10.2
		c-6.1-3.3-11.4-7.9-15.7-13.7c-4.4-5.8-6.6-13.1-6.6-21.8c0-12.8,4.5-23.2,13.5-31.1c9-7.9,20.6-12.1,35-12.6
		c17.7,0,34,4.4,49.1,13.1l-8.4,17C692.7,174.2,686.4,171.7,679.8,169.7z"/>
	<path class="st0" d="M908.4,143v168.9h-21.7v-106l-60.2,85.4H826l-59.1-82.4v103h-21.3V143h0.2l80.6,114.1L908.2,143H908.4z"/>
	<path class="st0" d="M956.7,188.5c7.5-12.8,17.7-23.1,30.5-30.7c12.8-7.6,26.7-11.4,41.8-11.4c14.9,0,28.8,3.8,41.7,11.4
		c12.8,7.6,23.1,17.9,30.7,30.7c7.6,12.8,11.4,26.7,11.4,41.7c0,15.1-3.8,29.1-11.3,41.9c-7.5,12.8-17.8,23-30.7,30.4
		c-12.9,7.5-26.8,11.2-41.8,11.2c-15.1,0-29.1-3.7-41.9-11.1c-12.8-7.4-23-17.5-30.5-30.2c-7.5-12.8-11.2-26.8-11.2-42.2
		C945.3,215.2,949.1,201.3,956.7,188.5z M976.1,261.4c5.4,9.5,12.9,17.1,22.3,22.6c9.4,5.6,19.7,8.4,30.9,8.4
		c11.2,0,21.4-2.8,30.7-8.3c9.3-5.5,16.6-13.1,22-22.6c5.4-9.6,8-20,8-31.4c0-11.3-2.7-21.8-8.2-31.5c-5.4-9.7-12.8-17.3-22.2-22.9
		c-9.4-5.6-19.6-8.4-30.8-8.4c-11.2,0-21.4,2.8-30.8,8.5c-9.4,5.7-16.7,13.3-22.1,23c-5.4,9.7-8,20.1-8,31.5
		C968,241.5,970.7,251.9,976.1,261.4z"/>
	<path class="st0" d="M1215.4,169.7c-6.6-2-12.9-2.9-18.8-2.9c-8.9,0-16,2-21.2,6c-5.2,4-7.8,9.5-7.8,16.4c0,6.8,3.1,12.3,9.2,16.6
		c6.1,4.3,14.8,8.6,26.1,12.8c8.5,3,15.6,6.3,21.4,9.8c5.8,3.5,10.6,8.5,14.5,14.7c3.8,6.3,5.8,14.2,5.8,23.9
		c0,8.8-2.2,16.7-6.6,23.8c-4.4,7.1-10.6,12.7-18.7,16.8c-8.1,4.1-17.5,6.1-28.4,6.1c-10.1,0-19.8-1.6-29.2-4.9
		c-9.4-3.2-17.6-7.4-24.7-12.3l9.7-17.4c5.6,4.2,12.3,7.8,20.1,10.8c7.8,2.9,15.2,4.4,22,4.4c8.8,0,16.4-2.3,23-6.8
		c6.6-4.5,9.8-11.2,9.8-20.1c0-7.5-2.8-13.5-8.3-18c-5.5-4.4-13.2-8.6-23.2-12.6c-9.2-3.5-16.9-6.9-23-10.2
		c-6.1-3.3-11.4-7.9-15.7-13.7c-4.4-5.8-6.6-13.1-6.6-21.8c0-12.8,4.5-23.2,13.5-31.1c9-7.9,20.6-12.1,35-12.6
		c17.7,0,34,4.4,49.1,13.1l-8.4,17C1228.3,174.2,1222.1,171.7,1215.4,169.7z"/>
	<path class="st0" d="M1408.1,148.2l-61.4,109.1v54.6h-22v-54.6l-60.7-109.1h27.2l45.1,84.2l44.8-84.2H1408.1z"/>
	<path class="st0" d="M1498,169.7c-6.6-2-12.9-2.9-18.8-2.9c-8.9,0-16,2-21.2,6c-5.2,4-7.8,9.5-7.8,16.4c0,6.8,3.1,12.3,9.2,16.6
		c6.1,4.3,14.8,8.6,26.1,12.8c8.5,3,15.6,6.3,21.4,9.8c5.8,3.5,10.6,8.5,14.5,14.7c3.8,6.3,5.8,14.2,5.8,23.9
		c0,8.8-2.2,16.7-6.6,23.8c-4.4,7.1-10.6,12.7-18.7,16.8c-8.1,4.1-17.5,6.1-28.4,6.1c-10.1,0-19.8-1.6-29.2-4.9
		c-9.4-3.2-17.6-7.4-24.7-12.3l9.7-17.4c5.6,4.2,12.3,7.8,20.1,10.8c7.8,2.9,15.2,4.4,22,4.4c8.8,0,16.4-2.3,23-6.8
		c6.6-4.5,9.8-11.2,9.8-20.1c0-7.5-2.8-13.5-8.3-18c-5.5-4.4-13.2-8.6-23.2-12.6c-9.2-3.5-16.9-6.9-23-10.2
		c-6.1-3.3-11.4-7.9-15.7-13.7c-4.4-5.8-6.6-13.1-6.6-21.8c0-12.8,4.5-23.2,13.5-31.1c9-7.9,20.6-12.1,35-12.6
		c17.7,0,34,4.4,49.1,13.1l-8.4,17C1510.9,174.2,1504.6,171.7,1498,169.7z"/>
	<path class="st0" d="M278.7,228.9c-4.7,5-8,11.2-9.6,17.9l-37.1-16.9c3.6-5.7,6.4-12,8.3-18.5L278.7,228.9z"/>
	<path class="st0" d="M149.8,259.4L134,294.1c-5.2-4.7-11.5-7.9-18-9.3l15.7-34.4C137.2,254.3,143.3,257.3,149.8,259.4z"/>
	<path class="st1" d="M321.3,293c-20.4,7.6-43.2-2.7-50.8-23.2c-2.9-7.6-3.2-15.6-1.4-23c1.6-6.6,4.9-12.8,9.6-17.9
		c4-4.3,9.1-7.8,15-10c20.4-7.6,43.2,2.7,50.8,23.2C352.2,262.6,341.8,285.4,321.3,293z"/>
	<path class="st1" d="M132.1,354.3c-17.1,13.6-41.9,10.8-55.5-6.2C63,331,65.8,306.1,82.8,292.5c9.7-7.7,21.9-10.2,33.1-7.7
		c6.6,1.4,12.8,4.6,18,9.3c1.6,1.4,3,3,4.4,4.7C152,315.8,149.2,340.7,132.1,354.3z"/>
	<path class="st2" d="M240.2,211.4c-1.9,6.5-4.6,12.8-8.3,18.5c-8,12.7-20,22.9-35.2,28.6c-15.7,5.9-32.2,5.8-47,0.9
		c-6.5-2.1-12.6-5.1-18.2-9c-11.6-8-20.9-19.4-26.2-33.6c-13.7-36.7,4.9-77.6,41.6-91.3c36.7-13.7,77.6,4.9,91.3,41.6
		C244,181.9,244.2,197.3,240.2,211.4z"/>
</g>
</svg>
