<?xml version="1.0" encoding="UTF-8"?><svg id="Layer_1" xmlns="http://www.w3.org/2000/svg" viewBox="0 0 3161.51 751.97"><defs><style>.cls-1{stroke-width:0px;}</style></defs><path class="cls-1" d="m2877.28,444.66h-102.36l-28.35,69.96h-35.35l116.35-277.26h2.21l116.35,277.26h-41.24l-27.61-69.96Zm-12.15-30.93l-37.93-97.21-39.4,97.21h77.32Z"/><path class="cls-1" d="m3031.55,248.4v266.21h-35.72V248.4h35.72Z"/><rect class="cls-1" x="2592.39" y="135.3" width="27.15" height="481.36"/><path class="cls-1" d="m704.17,311.18c12.27-20.86,28.78-37.49,49.52-49.89,20.74-12.39,43.38-18.59,67.93-18.59s46.88,6.2,67.75,18.59c20.86,12.4,37.49,29.03,49.89,49.89,12.39,20.87,18.59,43.45,18.59,67.75s-6.14,47.26-18.41,68.12c-12.28,20.87-28.9,37.37-49.89,49.52-20.99,12.15-43.63,18.23-67.93,18.23s-47.26-6.01-68.12-18.04c-20.87-12.02-37.37-28.41-49.52-49.15-12.15-20.74-18.23-43.63-18.23-68.67s6.13-46.88,18.41-67.75Zm31.67,118.56c8.84,15.47,20.92,27.74,36.27,36.82,15.34,9.09,32.09,13.62,50.26,13.62s34.79-4.48,49.89-13.44c15.1-8.96,27-21.23,35.71-36.82,8.71-15.58,13.07-32.59,13.07-51s-4.42-35.47-13.26-51.18c-8.84-15.7-20.87-28.1-36.08-37.19-15.22-9.08-31.91-13.62-50.08-13.62s-34.86,4.6-50.07,13.81c-15.22,9.2-27.19,21.67-35.9,37.37-8.72,15.71-13.07,32.77-13.07,51.18s4.42,34.98,13.26,50.44Z"/><path class="cls-1" d="m1125.02,280.62c-10.8-3.19-20.99-4.79-30.56-4.79-14.49,0-25.96,3.26-34.43,9.76-8.47,6.51-12.7,15.41-12.7,26.7s4.97,20.07,14.91,27.06c9.94,7,24.12,13.93,42.53,20.8,13.75,4.91,25.34,10.25,34.8,16.02,9.45,5.77,17.3,13.75,23.56,23.93,6.26,10.19,9.39,23.14,9.39,38.85,0,14.24-3.56,27.12-10.68,38.66-7.12,11.54-17.25,20.62-30.38,27.25-13.14,6.63-28.54,9.94-46.21,9.94-16.45,0-32.28-2.64-47.5-7.91-15.22-5.28-28.6-11.97-40.13-20.07l15.83-28.35c9.08,6.88,20,12.7,32.77,17.49,12.76,4.79,24.67,7.18,35.72,7.18,14.23,0,26.69-3.68,37.37-11.05,10.68-7.36,16.02-18.28,16.02-32.77,0-12.27-4.48-22.03-13.44-29.27-8.96-7.24-21.54-14.05-37.74-20.43-14.98-5.64-27.43-11.17-37.37-16.57-9.94-5.4-18.47-12.82-25.59-22.28-7.12-9.45-10.68-21.29-10.68-35.53,0-20.86,7.3-37.74,21.91-50.63,14.6-12.89,33.57-19.7,56.89-20.43,28.72,0,55.35,7.12,79.9,21.35l-13.62,27.62c-9.57-5.15-19.76-9.32-30.56-12.52Z"/><path class="cls-1" d="m1496.91,237.17v274.68h-35.35v-172.32l-97.94,138.81h-.74l-96.1-134.03v167.53h-34.61V237.17h.37l131.08,185.58,132.92-185.58h.37Z"/><path class="cls-1" d="m1575.33,311.18c12.27-20.86,28.78-37.49,49.52-49.89,20.74-12.39,43.38-18.59,67.93-18.59s46.88,6.2,67.75,18.59c20.86,12.4,37.49,29.03,49.89,49.89,12.39,20.87,18.59,43.45,18.59,67.75s-6.14,47.26-18.41,68.12c-12.28,20.87-28.9,37.37-49.89,49.52-20.99,12.15-43.63,18.23-67.93,18.23s-47.26-6.01-68.12-18.04c-20.87-12.02-37.37-28.41-49.52-49.15-12.15-20.74-18.23-43.63-18.23-68.67s6.13-46.88,18.41-67.75Zm31.67,118.56c8.84,15.47,20.92,27.74,36.27,36.82,15.34,9.09,32.09,13.62,50.26,13.62s34.79-4.48,49.89-13.44c15.1-8.96,27-21.23,35.71-36.82,8.71-15.58,13.07-32.59,13.07-51s-4.42-35.47-13.26-51.18c-8.84-15.7-20.87-28.1-36.08-37.19-15.22-9.08-31.91-13.62-50.08-13.62s-34.86,4.6-50.07,13.81c-15.22,9.2-27.19,21.67-35.9,37.37-8.72,15.71-13.07,32.77-13.07,51.18s4.42,34.98,13.26,50.44Z"/><path class="cls-1" d="m1996.19,280.62c-10.8-3.19-20.99-4.79-30.56-4.79-14.49,0-25.96,3.26-34.43,9.76-8.47,6.51-12.7,15.41-12.7,26.7s4.97,20.07,14.91,27.06c9.94,7,24.12,13.93,42.53,20.8,13.75,4.91,25.34,10.25,34.8,16.02,9.45,5.77,17.3,13.75,23.56,23.93,6.26,10.19,9.39,23.14,9.39,38.85,0,14.24-3.56,27.12-10.68,38.66-7.12,11.54-17.25,20.62-30.38,27.25-13.14,6.63-28.54,9.94-46.21,9.94-16.45,0-32.28-2.64-47.5-7.91-15.22-5.28-28.6-11.97-40.13-20.07l15.83-28.35c9.08,6.88,20,12.7,32.77,17.49,12.76,4.79,24.67,7.18,35.72,7.18,14.23,0,26.69-3.68,37.37-11.05,10.68-7.36,16.02-18.28,16.02-32.77,0-12.27-4.48-22.03-13.44-29.27-8.96-7.24-21.54-14.05-37.74-20.43-14.98-5.64-27.43-11.17-37.37-16.57-9.94-5.4-18.47-12.82-25.59-22.28-7.12-9.45-10.68-21.29-10.68-35.53,0-20.86,7.3-37.74,21.91-50.63,14.6-12.89,33.57-19.7,56.89-20.43,28.72,0,55.35,7.12,79.9,21.35l-13.62,27.62c-9.57-5.15-19.76-9.32-30.56-12.52Z"/><path class="cls-1" d="m2309.52,245.64l-99.78,177.48v88.74h-35.72v-88.74l-98.68-177.48h44.18l73.27,136.97,72.9-136.97h43.82Z"/><path class="cls-1" d="m2455.7,280.62c-10.8-3.19-20.99-4.79-30.56-4.79-14.49,0-25.96,3.26-34.43,9.76-8.47,6.51-12.7,15.41-12.7,26.7s4.97,20.07,14.91,27.06c9.94,7,24.12,13.93,42.53,20.8,13.75,4.91,25.34,10.25,34.8,16.02,9.45,5.77,17.3,13.75,23.56,23.93,6.26,10.19,9.39,23.14,9.39,38.85,0,14.24-3.56,27.12-10.68,38.66-7.12,11.54-17.25,20.62-30.38,27.25-13.14,6.63-28.54,9.94-46.21,9.94-16.45,0-32.28-2.64-47.5-7.91-15.22-5.28-28.6-11.97-40.13-20.07l15.83-28.35c9.08,6.88,20,12.7,32.77,17.49,12.76,4.79,24.67,7.18,35.72,7.18,14.23,0,26.69-3.68,37.37-11.05,10.68-7.36,16.02-18.28,16.02-32.77,0-12.27-4.48-22.03-13.44-29.27-8.96-7.24-21.54-14.05-37.74-20.43-14.98-5.64-27.43-11.17-37.37-16.57-9.94-5.4-18.47-12.82-25.59-22.28-7.12-9.45-10.68-21.29-10.68-35.53,0-20.86,7.3-37.74,21.91-50.63,14.6-12.89,33.57-19.7,56.89-20.43,28.72,0,55.35,7.12,79.9,21.35l-13.62,27.62c-9.57-5.15-19.76-9.32-30.56-12.52Z"/><path class="cls-1" d="m472.67,376.95c-7.68,8.18-13.08,18.24-15.66,29.04l-60.35-27.5c5.9-9.32,10.41-19.47,13.43-30.08l62.58,28.54Z"/><path class="cls-1" d="m263.02,426.55l-25.67,56.34c-8.47-7.68-18.63-12.78-29.33-15.11l25.47-55.89c9.07,6.29,19.03,11.2,29.53,14.67Z"/><path class="cls-1" d="m542.04,481.15c-33.25,12.39-70.26-4.46-82.7-37.71-4.66-12.44-5.2-25.42-2.33-37.46,2.58-10.8,7.98-20.86,15.66-29.04,6.54-6.99,14.82-12.64,24.38-16.2,33.25-12.44,70.26,4.41,82.7,37.66,12.44,33.25-4.46,70.31-37.71,82.75Z"/><path class="cls-1" d="m234.33,580.8c-27.75,22.1-68.18,17.59-90.33-10.16-22.15-27.75-17.59-68.18,10.16-90.33,15.76-12.59,35.63-16.55,53.86-12.54,10.7,2.33,20.86,7.43,29.33,15.11,2.53,2.28,4.91,4.81,7.14,7.58,22.15,27.7,17.59,68.18-10.16,90.33Z"/><path class="cls-1" d="m410.09,348.41c-3.02,10.6-7.53,20.76-13.43,30.08-12.98,20.61-32.6,37.31-57.18,46.53-25.57,9.56-52.37,9.46-76.46,1.54-10.5-3.47-20.46-8.37-29.53-14.67-18.83-12.93-33.99-31.61-42.56-54.61-22.35-59.71,7.98-126.21,67.74-148.55,59.71-22.3,126.21,7.98,148.55,67.74,8.97,23.98,9.41,49.06,2.87,71.95Z"/></svg>